<?xml version="1.0" encoding="UTF-8"?>
<!DOCTYPE svg PUBLIC "-//W3C//DTD SVG 1.1//EN" "http://www.w3.org/Graphics/SVG/1.1/DTD/svg11.dtd">
<svg version="1.1" xmlns="http://www.w3.org/2000/svg" xmlns:xlink="http://www.w3.org/1999/xlink" x="0" y="0" width="190.935" height="302.799" viewBox="0, 0, 190.935, 302.799">
  <g id="Layer_1">
    <path d="M14.691,80.961 L14.691,92.019 L47.115,92.019 L47.115,80.961 C47.115,54.196 68.891,32.423 95.653,32.423 C122.414,32.423 144.189,54.196 144.189,80.961 L144.189,160.943 L176.613,160.943 L176.613,80.961 C176.613,36.32 140.293,0 95.653,0 C51.014,0 14.691,36.32 14.691,80.961" fill="#F68212" id="path2424"/>
    <path d="M122.529,207.621 C122.529,222.391 110.554,234.366 95.78,234.366 C81.007,234.366 69.031,222.391 69.031,207.621 C69.031,192.842 81.007,180.866 95.78,180.866 C110.554,180.866 122.529,192.842 122.529,207.621" fill="#F68212" id="path2426"/>
    <path d="M32.423,207.333 C32.423,172.569 60.706,144.288 95.469,144.288 C130.23,144.288 158.51,172.569 158.51,207.333 C158.51,242.092 130.23,270.379 95.469,270.379 C60.706,270.379 32.423,242.092 32.423,207.333 M-0,207.333 C-0,259.967 42.831,302.799 95.469,302.799 C148.107,302.799 190.935,259.967 190.935,207.333 C190.935,154.69 148.107,111.864 95.469,111.864 C42.831,111.864 -0,154.69 -0,207.333" fill="#F68212" id="path2428"/>
  </g>
</svg>
