<?xml version="1.0" encoding="UTF-8"?>
<!DOCTYPE svg PUBLIC "-//W3C//DTD SVG 1.1//EN" "http://www.w3.org/Graphics/SVG/1.1/DTD/svg11.dtd">
<svg version="1.1" xmlns="http://www.w3.org/2000/svg" xmlns:xlink="http://www.w3.org/1999/xlink" x="0" y="0" width="407.32" height="607.291" viewBox="0, 0, 407.32, 607.291">
  <g id="Layer_1">
    <g>
      <g id="path2424">
        <path d="M59.762,178.228 L59.762,197.995 L117.724,197.995 L117.724,178.228 C117.724,130.383 156.652,91.459 204.491,91.459 C252.33,91.459 291.255,130.383 291.255,178.228 L291.255,321.205 L349.217,321.205 L349.217,178.228 C349.217,98.427 284.29,33.5 204.491,33.5 C124.693,33.5 59.762,98.427 59.762,178.228" fill="#EE9F61"/>
        <path d="M59.762,178.228 L59.762,197.995 L117.724,197.995 L117.724,178.228 C117.724,130.383 156.652,91.459 204.491,91.459 C252.33,91.459 291.255,130.383 291.255,178.228 L291.255,321.205 L349.217,321.205 L349.217,178.228 C349.217,98.427 284.29,33.5 204.491,33.5 C124.693,33.5 59.762,98.427 59.762,178.228" fill-opacity="0" stroke="#6A6B6B" stroke-width="16"/>
      </g>
      <g id="path2426">
        <path d="M252.535,404.649 C252.535,431.052 231.129,452.459 204.719,452.459 C178.311,452.459 156.902,431.052 156.902,404.649 C156.902,378.23 178.311,356.821 204.719,356.821 C231.129,356.821 252.535,378.23 252.535,404.649" fill="#EE9F61"/>
        <path d="M252.535,404.649 C252.535,431.052 231.129,452.459 204.719,452.459 C178.311,452.459 156.902,431.052 156.902,404.649 C156.902,378.23 178.311,356.821 204.719,356.821 C231.129,356.821 252.535,378.23 252.535,404.649" fill-opacity="0" stroke="#6A6B6B" stroke-width="16"/>
      </g>
      <g id="path2428">
        <path d="M91.459,404.133 C91.459,341.988 142.02,291.432 204.162,291.432 C266.302,291.432 316.856,341.988 316.856,404.133 C316.856,466.271 266.302,516.836 204.162,516.836 C142.02,516.836 91.459,466.271 91.459,404.133 M33.5,404.133 C33.5,498.224 110.066,574.791 204.162,574.791 C298.261,574.791 374.82,498.224 374.82,404.133 C374.82,310.028 298.261,233.47 204.162,233.47 C110.066,233.47 33.5,310.028 33.5,404.133" fill="#EE9F61"/>
        <path d="M91.459,404.133 C91.459,341.988 142.02,291.432 204.162,291.432 C266.302,291.432 316.856,341.988 316.856,404.133 C316.856,466.271 266.302,516.836 204.162,516.836 C142.02,516.836 91.459,466.271 91.459,404.133 M33.5,404.133 C33.5,498.224 110.066,574.791 204.162,574.791 C298.261,574.791 374.82,498.224 374.82,404.133 C374.82,310.028 298.261,233.47 204.162,233.47 C110.066,233.47 33.5,310.028 33.5,404.133" fill-opacity="0" stroke="#6A6B6B" stroke-width="16"/>
      </g>
    </g>
  </g>
</svg>
