<?xml version="1.0" encoding="UTF-8"?>
<!DOCTYPE svg PUBLIC "-//W3C//DTD SVG 1.1//EN" "http://www.w3.org/Graphics/SVG/1.1/DTD/svg11.dtd">
<svg version="1.1" xmlns="http://www.w3.org/2000/svg" xmlns:xlink="http://www.w3.org/1999/xlink" x="0" y="0" width="2950.574" height="656.26" viewBox="0, 0, 2950.574, 656.26">
  <g id="Layer_1">
    <g>
      <g id="path2424">
        <path d="M43.262,161.728 L43.262,181.495 L101.224,181.495 L101.224,161.728 C101.224,113.883 140.152,74.959 187.991,74.959 C235.83,74.959 274.755,113.883 274.755,161.728 L274.755,304.705 L332.717,304.705 L332.717,161.728 C332.717,81.927 267.79,17 187.991,17 C108.193,17 43.262,81.927 43.262,161.728" fill="#EE9F61"/>
        <path d="M43.262,161.728 L43.262,181.495 L101.224,181.495 L101.224,161.728 C101.224,113.883 140.152,74.959 187.991,74.959 C235.83,74.959 274.755,113.883 274.755,161.728 L274.755,304.705 L332.717,304.705 L332.717,161.728 C332.717,81.927 267.79,17 187.991,17 C108.193,17 43.262,81.927 43.262,161.728" fill-opacity="0" stroke="#6A6B6B" stroke-width="16"/>
      </g>
      <g id="path2426">
        <path d="M236.035,388.149 C236.035,414.552 214.629,435.959 188.219,435.959 C161.811,435.959 140.402,414.552 140.402,388.149 C140.402,361.73 161.811,340.321 188.219,340.321 C214.629,340.321 236.035,361.73 236.035,388.149" fill="#EE9F61"/>
        <path d="M236.035,388.149 C236.035,414.552 214.629,435.959 188.219,435.959 C161.811,435.959 140.402,414.552 140.402,388.149 C140.402,361.73 161.811,340.321 188.219,340.321 C214.629,340.321 236.035,361.73 236.035,388.149" fill-opacity="0" stroke="#6A6B6B" stroke-width="16"/>
      </g>
      <g id="path2428">
        <path d="M74.959,387.633 C74.959,325.488 125.52,274.932 187.662,274.932 C249.802,274.932 300.356,325.488 300.356,387.633 C300.356,449.771 249.802,500.336 187.662,500.336 C125.52,500.336 74.959,449.771 74.959,387.633 M17,387.633 C17,481.724 93.566,558.291 187.662,558.291 C281.761,558.291 358.32,481.724 358.32,387.633 C358.32,293.528 281.761,216.97 187.662,216.97 C93.566,216.97 17,293.528 17,387.633" fill="#EE9F61"/>
        <path d="M74.959,387.633 C74.959,325.488 125.52,274.932 187.662,274.932 C249.802,274.932 300.356,325.488 300.356,387.633 C300.356,449.771 249.802,500.336 187.662,500.336 C125.52,500.336 74.959,449.771 74.959,387.633 M17,387.633 C17,481.724 93.566,558.291 187.662,558.291 C281.761,558.291 358.32,481.724 358.32,387.633 C358.32,293.528 281.761,216.97 187.662,216.97 C93.566,216.97 17,293.528 17,387.633" fill-opacity="0" stroke="#6A6B6B" stroke-width="16"/>
      </g>
    </g>
    <g>
      <text transform="matrix(1, 0, 0, 1, 1687.319, 340.107)">
        <tspan x="-1035.19" y="71.463" font-family="LetterGothicStd-Bold" font-size="450" kerning="-5" fill="#0E0C0C">Open.Res</tspan>
      </text>
      <path d="M687.68,249.57 C687.68,295.47 687.229,417.87 787.13,417.87 C889.729,417.87 886.579,292.77 886.579,249.57 C886.579,189.27 881.63,81.27 787.13,81.27 C732.68,81.27 687.68,114.12 687.68,249.57 z M787.13,389.52 C719.63,389.52 721.43,286.47 721.43,249.57 C721.43,230.67 715.13,109.62 787.13,109.62 C857.329,109.62 852.829,219.87 852.829,249.57 C852.829,367.02 820.88,389.52 787.13,389.52 z M988.68,164.97 L956.729,169.02 C966.63,198.27 968.43,228.87 968.43,259.47 L968.43,503.82 L1002.18,503.82 L1002.18,402.57 C1019.279,411.57 1033.679,416.52 1053.479,416.52 C1092.179,416.52 1151.579,384.12 1151.579,292.77 C1151.579,198.27 1097.13,165.87 1054.829,165.87 C1026.929,165.87 1016.13,174.87 995.88,192.87 z M1002.18,236.07 C1012.529,214.02 1026.929,194.22 1054.38,194.22 C1076.429,194.22 1117.829,212.67 1117.829,291.42 C1117.829,353.97 1087.679,388.17 1048.079,388.17 C1031.429,388.17 1015.68,379.17 1002.18,368.37 z M1415.229,299.97 L1415.229,281.52 C1415.229,255.42 1402.63,165.87 1322.53,165.87 C1250.53,165.87 1221.28,229.77 1221.28,292.77 C1221.28,355.32 1249.63,416.52 1320.729,416.52 C1354.03,416.52 1382.829,406.17 1412.979,392.67 L1398.579,362.52 C1376.53,376.02 1349.979,388.17 1323.429,388.17 C1286.53,388.17 1256.829,366.12 1255.03,299.97 z M1254.579,271.62 C1263.579,223.02 1282.03,194.22 1319.829,194.22 C1357.63,194.22 1380.13,232.02 1381.479,271.62 z M1530.829,311.22 C1530.829,226.62 1570.88,194.22 1602.829,194.22 C1632.53,194.22 1632.53,228.87 1632.53,251.82 L1632.53,411.57 L1666.28,411.57 L1666.28,241.92 C1666.28,200.97 1646.479,165.87 1608.229,165.87 C1574.479,165.87 1543.429,186.57 1526.329,214.92 L1518.679,170.82 L1486.28,170.82 C1495.28,209.07 1497.079,250.02 1497.079,290.52 L1497.079,411.57 L1530.829,411.57 z M1811.13,382.77 C1811.13,402.57 1827.78,417.87 1847.579,417.87 C1866.929,417.87 1883.579,402.57 1883.579,382.77 C1883.579,362.97 1866.929,348.12 1847.579,348.12 C1828.229,348.12 1811.13,362.97 1811.13,382.77 z M2036.079,411.57 L2069.83,411.57 L2069.83,277.47 C2086.03,277.02 2102.229,277.02 2118.429,276.57 L2197.179,411.57 L2238.129,411.57 L2150.83,268.92 C2195.83,243.27 2208.429,212.67 2208.429,179.37 C2208.429,160.47 2201.229,87.57 2120.229,87.57 L2036.079,87.57 z M2069.83,248.67 L2069.83,115.92 L2103.129,115.92 C2156.679,115.92 2174.679,134.37 2174.679,177.57 C2174.679,225.27 2147.679,248.67 2101.78,248.67 z M2475.229,299.97 L2475.229,281.52 C2475.229,255.42 2462.629,165.87 2382.53,165.87 C2310.53,165.87 2281.28,229.77 2281.28,292.77 C2281.28,355.32 2309.629,416.52 2380.729,416.52 C2414.03,416.52 2442.83,406.17 2472.979,392.67 L2458.58,362.52 C2436.53,376.02 2409.979,388.17 2383.429,388.17 C2346.53,388.17 2316.83,366.12 2315.03,299.97 z M2314.58,271.62 C2323.58,223.02 2342.03,194.22 2379.83,194.22 C2417.629,194.22 2440.129,232.02 2441.479,271.62 z M2715.929,193.77 C2692.08,176.67 2668.229,165.87 2638.08,165.87 C2596.229,165.87 2563.83,194.22 2563.83,229.32 C2563.83,272.52 2603.429,288.72 2637.629,301.77 C2662.379,311.22 2687.58,319.77 2687.58,351.27 C2687.58,375.57 2668.229,388.17 2645.729,388.17 C2617.379,388.17 2586.33,367.92 2567.429,347.67 L2548.979,374.67 C2575.53,398.52 2611.53,416.52 2647.979,416.52 C2685.33,416.52 2721.33,389.52 2721.33,349.92 C2721.33,302.22 2681.729,286.47 2643.929,272.52 C2625.479,265.77 2597.58,254.07 2597.58,230.67 C2597.58,209.07 2616.479,194.22 2636.729,194.22 C2661.03,194.22 2682.179,207.72 2701.08,221.22 z" fill-opacity="0" stroke="#0E0C0C" stroke-width="15"/>
    </g>
    <text transform="matrix(1, 0, 0, 1, 2820.668, 377.222)">
      <tspan x="-113.405" y="71.463" font-family="LetterGothicStd" font-size="450" kerning="-5" fill="#0E0C0C">&gt;</tspan>
    </text>
    <text transform="matrix(1, 0, 0, 1, 538.445, 377.222)">
      <tspan x="-113.405" y="71.463" font-family="LetterGothicStd" font-size="450" kerning="-5" fill="#0E0C0C">&lt;</tspan>
    </text>
  </g>
</svg>
